<?xml version="1.0" standalone="no"?>
<!DOCTYPE svg PUBLIC "-//W3C//DTD SVG 20010904//EN"
 "http://www.w3.org/TR/2001/REC-SVG-20010904/DTD/svg10.dtd">
<svg version="1.0" xmlns="http://www.w3.org/2000/svg"
 width="1679.000000pt" height="1679.000000pt" viewBox="0 0 1679.000000 1679.000000"
 preserveAspectRatio="xMidYMid meet">
<metadata>
Created by potrace 1.14, written by Peter Selinger 2001-2017
</metadata>
<g transform="translate(0.000000,1679.000000) scale(0.100000,-0.100000)"
fill="#000000" stroke="none">
<path d="M13855 10146 c-1072 -177 -1975 -327 -2005 -334 -198 -44 -380 -229
-435 -441 -30 -115 -22 -210 55 -671 38 -234 72 -429 74 -435 3 -5 5 190 5
435 1 493 2 506 66 635 82 166 233 289 408 330 94 22 4130 22 4225 0 94 -22
193 -77 270 -149 l68 -65 -42 262 c-45 272 -61 341 -99 417 -37 73 -111 164
-168 208 -121 91 -243 132 -387 131 -60 -1 -649 -94 -2035 -323z"/>
<path d="M12030 9566 c-203 -56 -352 -202 -428 -415 l-27 -76 0 -935 c0 -749
3 -946 13 -990 22 -87 88 -212 147 -277 46 -51 167 -143 188 -143 4 0 8 579 9
1288 l3 1287 310 3 c333 3 565 -8 658 -33 184 -48 313 -172 381 -365 28 -79
30 -96 30 -225 1 -104 -4 -156 -17 -204 -55 -199 -164 -319 -345 -379 -72 -24
-93 -26 -309 -30 l-233 -4 0 -699 0 -699 1309 0 1308 0 232 489 c127 268 231
491 231 494 0 3 -115 247 -255 542 -140 295 -255 539 -255 541 0 2 112 4 249
4 l250 0 51 -132 c100 -256 168 -443 175 -481 4 -21 9 -36 11 -34 3 2 13 35
24 73 11 38 64 182 118 319 l99 250 242 3 c132 1 241 0 241 -2 0 -3 -194 -449
-431 -993 -237 -543 -440 -1007 -450 -1031 l-19 -43 358 4 c385 4 387 4 503
62 160 80 292 250 328 423 8 37 11 335 11 970 0 1019 2 980 -68 1122 -49 99
-159 211 -258 263 -140 72 39 67 -2264 66 -1625 -1 -2085 -3 -2120 -13z m2115
-817 c79 -24 159 -80 215 -151 l45 -57 3 100 3 99 207 -2 207 -3 3 -637 2
-638 -210 0 -210 0 0 96 0 96 -69 -74 c-110 -118 -226 -168 -386 -168 -153 0
-272 47 -371 146 -179 179 -243 536 -147 827 60 179 202 324 363 367 119 33
238 32 345 -1z m1843 -1684 c2 -17 -3 -21 -25 -20 -25 0 -28 -4 -28 -30 0 -26
4 -30 28 -30 22 1 27 -4 27 -22 0 -20 -5 -23 -35 -23 -69 0 -103 83 -53 130
30 27 82 24 86 -5z m157 0 c49 -49 16 -125 -55 -125 -44 0 -80 35 -80 77 0 34
42 73 80 73 19 0 40 -9 55 -25z m105 13 c0 -9 3 -9 12 0 14 14 64 16 72 3 4
-5 19 -4 36 2 50 19 64 2 68 -77 3 -65 2 -66 -23 -66 -24 0 -25 3 -25 55 0 48
-3 55 -19 55 -17 0 -20 -8 -23 -52 -3 -49 -5 -53 -28 -53 -23 0 -25 4 -28 53
-3 44 -6 53 -20 50 -13 -2 -18 -16 -20 -56 -3 -48 -5 -52 -28 -52 -23 0 -24 2
-24 75 0 73 1 75 25 75 14 0 25 -5 25 -12z m-403 -122 c-4 -9 -16 -16 -27 -16
-29 0 -38 30 -15 47 16 11 21 11 33 -1 8 -8 12 -22 9 -30z"/>
<path d="M14060 8410 c-143 -30 -232 -174 -217 -352 14 -165 110 -266 263
-276 146 -9 258 57 300 179 27 79 25 217 -6 286 -24 57 -92 126 -144 148 -44
18 -142 26 -196 15z"/>
<path d="M16070 7035 c-19 -23 -8 -50 20 -50 16 0 26 6 28 18 4 18 -14 47 -28
47 -4 0 -13 -7 -20 -15z"/>
<path d="M7075 9009 c-160 -12 -332 -72 -465 -162 -66 -45 -184 -162 -240
-237 -157 -214 -227 -509 -190 -800 45 -349 249 -640 555 -791 141 -69 247
-92 440 -92 178 -1 272 16 423 75 l102 41 0 300 0 300 -62 -60 c-136 -130
-243 -177 -403 -176 -159 0 -279 53 -380 165 -52 58 -108 169 -124 246 -16 75
-13 236 4 311 44 186 172 328 343 381 93 29 228 27 325 -3 85 -27 141 -63 233
-149 l64 -60 0 296 0 297 -62 29 c-168 75 -350 104 -563 89z"/>
<path d="M210 7970 l0 -1000 610 0 610 0 0 235 0 235 -335 0 -335 0 0 765 0
765 -275 0 -275 0 0 -1000z"/>
<path d="M1700 7970 l0 -1000 610 0 610 0 0 225 0 225 -342 2 -343 3 0 165 0
165 323 3 322 2 0 215 0 215 -325 0 -325 0 2 168 3 167 343 3 342 2 0 220 0
220 -610 0 -610 0 0 -1000z"/>
<path d="M3128 8928 c16 -24 167 -238 335 -477 l306 -433 -23 -32 c-29 -39
-699 -986 -710 -1003 -6 -10 57 -13 302 -13 l310 0 186 323 c102 178 194 346
203 372 l16 48 29 -64 c16 -35 108 -202 206 -371 l177 -308 308 0 c169 0 307
2 307 4 0 3 -161 231 -358 508 -197 277 -362 509 -366 516 -5 8 109 180 317
480 178 257 327 473 331 480 6 9 -60 12 -316 12 l-323 0 -147 -282 c-80 -156
-149 -293 -152 -304 -5 -17 -42 47 -160 280 l-153 301 -327 3 -327 2 29 -42z"/>
<path d="M5270 7970 l0 -1000 275 0 275 0 0 1000 0 1000 -275 0 -275 0 0
-1000z"/>
<path d="M8437 8898 c-110 -309 -657 -1904 -657 -1915 0 -10 53 -13 268 -13
l268 0 28 98 c15 53 38 134 52 180 l25 82 384 0 384 0 20 -67 c11 -38 32 -111
46 -163 14 -52 28 -103 31 -112 5 -17 27 -18 275 -18 148 0 269 3 269 8 0 4
-154 454 -342 999 l-343 993 -341 0 -341 0 -26 -72z m402 -393 c17 -66 75
-266 131 -445 55 -178 100 -328 100 -332 0 -4 -120 -8 -266 -8 -248 0 -265 1
-260 18 3 9 30 98 60 197 106 350 165 551 181 623 9 40 18 72 20 70 2 -2 17
-57 34 -123z"/>
<path d="M10020 7970 l0 -1000 610 0 610 0 0 235 0 235 -335 0 -335 0 0 765 0
765 -275 0 -275 0 0 -1000z"/>
<path d="M12410 8695 l0 -217 128 4 c118 3 133 6 187 33 74 37 100 81 100 170
0 78 -9 107 -46 150 -41 46 -100 63 -250 71 l-119 7 0 -218z"/>
</g>
</svg>
